<svg xmlns="http://www.w3.org/2000/svg" id="Layer_1" data-name="Layer 1" viewBox="0 0.01 423.26 318.07">
  <path d="M422.89,10.21l-4.82,16.72c-1.3,4.53-5.7,7.92-10.26,7.92h-77.89c-4.58,0-8.99,3.42-10.28,7.96l-75.69,267.31c-1.29,4.55-5.7,7.96-10.28,7.96h-23.03c-5.44,0-8.89-4.76-7.36-10.16L277.73,45.01c1.53-5.4-1.92-10.16-7.36-10.16h-73.88c-5.44,0-8.88-4.75-7.36-10.15l4.72-16.72c1.28-4.55,5.7-7.97,10.28-7.97h211.41c5.46,0,8.91,4.79,7.35,10.21Z" stroke-width="0"/>
  <path d="M220.02,82.08h-22.47s-64.08.65-64.08.65c-3.76.04-7.12,2.53-8.04,6.17,0,.03-.02.06-.02.09l-5.89,24.15c-1.28,5.24.88,10.18,4.41,10.2l16.41-.22h.33c3.37.02,71.04-.76,71.04-.76,3.1-.03,6.24-3.41,7.33-7.88l5.48-22.47c1.29-5.31-.81-9.96-4.48-9.93Z" stroke-width="0"/>
  <path d="M194.99,158.25h-30.73s-89.8.67-89.8.67c-3.87.03-7.42,2.46-8.58,6.15,0,.03-.02.06-.03.09l-7.21,24.15c-1.57,5.24,1.56,10.18,6.39,10.2l22.51-.22h.31c3.88.03,97.15-.76,97.15-.76,4.23-.03,8.41-3.41,9.75-7.88l6.7-22.47c1.58-5.31-1.45-9.96-6.48-9.93Z" stroke-width="0"/>
  <path d="M169.65,236.19h-38.3s-113.09.67-113.09.67c-2.39.01-4.77.74-6.6,2.28-1.27,1.07-2.25,2.42-2.79,3.96L.45,267.25c-1.83,5.24,2.18,10.18,8.21,10.2l28.28-.22c-.01.06,121.23-.76,121.23-.76,5.27-.03,10.41-3.41,11.96-7.88l7.83-22.47c1.85-5.31-2.04-9.96-8.31-9.93Z" stroke-width="0"/>
</svg>